<svg width="145" height="28" viewBox="0 0 145 28" fill="none" xmlns="http://www.w3.org/2000/svg">
<path d="M27.0649 20.4346C28.6109 20.4346 29.8642 19.1813 29.8642 17.6353C29.8642 16.0892 28.6109 14.8359 27.0649 14.8359C25.5189 14.8359 24.2656 16.0892 24.2656 17.6353C24.2656 19.1813 25.5189 20.4346 27.0649 20.4346Z" fill="#ee2c3c"/>
<path d="M73.6636 8.47656C68.5118 8.47656 64.3359 12.6525 64.3359 17.8045C64.3359 22.9564 68.5118 27.1324 73.6636 27.1324C78.8155 27.1324 82.9913 22.9564 82.9913 17.8045C82.9913 12.6525 78.8144 8.47656 73.6636 8.47656ZM73.6636 22.6725C70.9755 22.6725 68.7957 20.4927 68.7957 17.8045C68.7957 15.1162 70.9755 12.9364 73.6636 12.9364C76.3518 12.9364 78.5316 15.1162 78.5316 17.8045C78.5316 20.4927 76.3518 22.6725 73.6636 22.6725Z" fill="#ee2c3c"/>
<path d="M115.687 8.47656C110.535 8.47656 106.359 12.6525 106.359 17.8045C106.359 22.9564 110.535 27.1324 115.687 27.1324C120.839 27.1324 125.015 22.9564 125.015 17.8045C125.015 12.6525 120.839 8.47656 115.687 8.47656ZM115.687 22.6725C112.999 22.6725 110.819 20.4927 110.819 17.8045C110.819 15.1162 112.999 12.9364 115.687 12.9364C118.375 12.9364 120.555 15.1162 120.555 17.8045C120.555 20.4927 118.376 22.6725 115.687 22.6725Z" fill="#ee2c3c"/>
<path d="M13.5902 21.6203C12.7011 22.3488 11.5656 22.7867 10.3266 22.7867C7.93771 22.7867 5.92847 21.1615 5.34419 18.9563H15.309C15.3079 18.9596 15.3068 18.9618 15.3068 18.9651H19.5585C19.6212 18.5294 19.6554 18.0848 19.6554 17.6326C19.6554 12.4806 15.4795 8.30469 10.3277 8.30469C5.17583 8.30469 1 12.4806 1 17.6326C1 22.7845 5.17583 26.9605 10.3277 26.9605C14.0524 26.9605 17.2654 24.7773 18.7608 21.6214H13.5902V21.6203ZM10.3266 12.4773C12.5053 12.4773 14.3671 13.8297 15.1219 15.741H5.53235C6.28609 13.8297 8.14788 12.4773 10.3266 12.4773Z" fill="#ee2c3c"/>
<path d="M100.641 7.60972C102.19 7.60972 103.446 6.35394 103.446 4.80486C103.446 3.25578 102.19 2 100.641 2C99.0917 2 97.8359 3.25578 97.8359 4.80486C97.8359 6.35394 99.0917 7.60972 100.641 7.60972Z" fill="#ee2c3c"/>
<path d="M102.866 9.02344H98.4141V26.5447H102.866V9.02344Z" fill="#ee2c3c"/>
<path d="M95.2521 9.04049H92.1392V4.21094H87.6519V9.04049H84.5391V13.4629H87.6519V26.5497H92.1392V13.4629H95.2521V9.04049Z" fill="#ee2c3c"/>
<path d="M143.992 16.987C143.943 12.5844 140.36 9.03125 135.946 9.03125C134.667 9.03125 133.459 9.33165 132.385 9.86313V9.07526H127.898V16.987V17.6241V26.5393H132.385V17.6241V17.0871C132.385 17.0849 132.385 17.0816 132.385 17.0794C132.385 15.1119 133.979 13.5175 135.946 13.5175C137.914 13.5175 139.508 15.1119 139.508 17.0794C139.508 17.0816 139.508 17.0849 139.508 17.0871V26.5404H143.994V16.987H143.992Z" fill="#ee2c3c"/>
<path d="M61.1229 16.6613C61.1163 12.4457 57.6975 9.03125 53.4809 9.03125C51.3727 9.03125 49.4647 9.88514 48.0815 11.265C46.6984 9.88514 44.7904 9.03125 42.6821 9.03125C41.5564 9.03125 40.488 9.27664 39.5252 9.71348V9.03125H35.0391V16.6613V16.6734V17.7704V26.5526H39.5252V17.7704V16.6734C39.5252 14.9304 40.938 13.5164 42.6821 13.5164C44.4251 13.5164 45.839 14.9293 45.839 16.6734V26.5526H50.3251V16.6734C50.3251 14.9304 51.738 13.5175 53.482 13.5175C55.225 13.5175 56.639 14.9304 56.639 16.6745V26.5537H61.1251L61.1229 16.6613Z" fill="#ee2c3c"/>
</svg>
